<svg width="30" height="28" viewBox="0 0 30 28" fill="none" xmlns="http://www.w3.org/2000/svg">
<path d="M17.8 23.4C23.0794 23.4 25.7198 23.4 27.3592 21.7592C29 20.1198 29 17.4794 29 12.2C29 6.9206 29 4.2802 27.3592 2.6408C25.7198 1 23.0794 1 17.8 1H12.2C6.9206 1 4.2802 1 2.6408 2.6408C1 4.2802 1 6.9206 1 12.2C1 17.4794 1 20.1198 2.6408 21.7592C3.555 22.6748 4.78 23.0794 6.6 23.2572" stroke="#3D67FF" stroke-width="2" stroke-linecap="round" stroke-linejoin="round"/>
<path opacity="0.5" d="M15 12.2V12.2131" stroke="#3D67FF" stroke-width="3" stroke-linecap="round"/>
<path opacity="0.5" d="M9.39844 12.2V12.2131" stroke="#3D67FF" stroke-width="3" stroke-linecap="round"/>
<path opacity="0.5" d="M20.6016 12.2V12.2131" stroke="#3D67FF" stroke-width="3" stroke-linecap="round"/>
<path d="M17.7999 23.4C16.0695 23.4 14.1627 24.1 12.4225 25.003C9.62535 26.4548 8.22675 27.1814 7.53795 26.718C6.84915 26.256 6.97935 24.821 7.24115 21.9524L7.29995 21.3" stroke="#3D67FF" stroke-width="2" stroke-linecap="round"/>
</svg>
