<svg width="26" height="26" viewBox="0 0 26 26" fill="none" xmlns="http://www.w3.org/2000/svg">
<path d="M7.94552 11.1053C8.44803 11.1053 8.92997 10.9056 9.2853 10.5503C9.64063 10.195 9.84026 9.71305 9.84026 9.21053C9.84026 8.70802 9.64063 8.22608 9.2853 7.87075C8.92997 7.51542 8.44803 7.3158 7.94552 7.3158C7.443 7.3158 6.96107 7.51542 6.60574 7.87075C6.2504 8.22608 6.05078 8.70802 6.05078 9.21053C6.05078 9.71305 6.2504 10.195 6.60574 10.5503C6.96107 10.9056 7.443 11.1053 7.94552 11.1053Z" stroke="#92A9FD" stroke-width="2" stroke-linecap="round" stroke-linejoin="round"/>
<path d="M23.7379 17.421L17.4221 11.1052L3.52734 25" stroke="#92A9FD" stroke-width="2" stroke-linecap="round" stroke-linejoin="round"/>
<path d="M21.2104 1V8.57895" stroke="#3D67FF" stroke-width="2" stroke-linecap="round" stroke-linejoin="round"/>
<path d="M24.9998 4.78943H17.4209" stroke="#3D67FF" stroke-width="2" stroke-linecap="round" stroke-linejoin="round"/>
<path d="M23.7368 12.3684V22.4737C23.7368 23.1437 23.4707 23.7863 22.9969 24.2601C22.5231 24.7339 21.8805 25 21.2105 25H3.52632C2.8563 25 2.21372 24.7339 1.73994 24.2601C1.26616 23.7863 1 23.1437 1 22.4737V4.7895C1 4.11948 1.26616 3.4769 1.73994 3.00312C2.21372 2.52935 2.8563 2.26318 3.52632 2.26318H13.6316" stroke="#3D67FF" stroke-width="2" stroke-linecap="round" stroke-linejoin="round"/>
</svg>
