<svg width="32" height="32" viewBox="0 0 32 32" fill="none" xmlns="http://www.w3.org/2000/svg">
<circle cx="16" cy="16" r="16" fill="#3D67FF"/>
<g filter="url(#filter0_d_925_1149)">
<path d="M22.1553 14.7694C22.1553 13.9549 21.4653 13.2925 20.6169 13.2925H19.8477V11.0771C19.8477 9.04113 18.1223 7.38477 16.0015 7.38477C13.8807 7.38477 12.1553 9.04113 12.1553 11.0771V13.2925H11.3861C10.5377 13.2925 9.84766 13.9549 9.84766 14.7694V20.6771C9.84766 21.4916 10.5377 22.154 11.3861 22.154H20.6169C21.4653 22.154 22.1553 21.4916 22.1553 20.6771V14.7694ZM13.6938 11.0771C13.6938 9.85566 14.7292 8.86169 16.0015 8.86169C17.2738 8.86169 18.3092 9.85566 18.3092 11.0771V13.2925H13.6938V11.0771Z" fill="white"/>
</g>
<defs>
<filter id="filter0_d_925_1149" x="7.84766" y="5.38477" width="18.3076" height="20.7693" filterUnits="userSpaceOnUse" color-interpolation-filters="sRGB">
<feFlood flood-opacity="0" result="BackgroundImageFix"/>
<feColorMatrix in="SourceAlpha" type="matrix" values="0 0 0 0 0 0 0 0 0 0 0 0 0 0 0 0 0 0 127 0" result="hardAlpha"/>
<feOffset dx="1" dy="1"/>
<feGaussianBlur stdDeviation="1.5"/>
<feComposite in2="hardAlpha" operator="out"/>
<feColorMatrix type="matrix" values="0 0 0 0 0 0 0 0 0 0 0 0 0 0 0 0 0 0 0.1 0"/>
<feBlend mode="normal" in2="BackgroundImageFix" result="effect1_dropShadow_925_1149"/>
<feBlend mode="normal" in="SourceGraphic" in2="effect1_dropShadow_925_1149" result="shape"/>
</filter>
</defs>
</svg>
