<svg width="28" height="16" viewBox="0 0 28 16" fill="none" xmlns="http://www.w3.org/2000/svg">
<path d="M17.9 1.5H20.5C22.2239 1.5 23.8772 2.18482 25.0962 3.40381C26.3152 4.62279 27 6.27609 27 8C27 9.72391 26.3152 11.3772 25.0962 12.5962C23.8772 13.8152 22.2239 14.5 20.5 14.5H17.9M10.1 14.5H7.5C5.77609 14.5 4.12279 13.8152 2.90381 12.5962C1.68482 11.3772 1 9.72391 1 8C1 6.27609 1.68482 4.62279 2.90381 3.40381C4.12279 2.18482 5.77609 1.5 7.5 1.5H10.1" stroke="#3D67FF" stroke-width="2" stroke-linecap="round" stroke-linejoin="round"/>
<path d="M8.7998 8H19.1998" stroke="#92A9FD" stroke-width="2" stroke-linecap="round" stroke-linejoin="round"/>
</svg>
