<svg width="26" height="26" viewBox="0 0 26 26" fill="none" xmlns="http://www.w3.org/2000/svg">
<path d="M8.33333 15.6666H3C1.89543 15.6666 1 16.5621 1 17.6666V23C1 24.1045 1.89543 25 3 25H8.33333C9.4379 25 10.3333 24.1045 10.3333 23V17.6666C10.3333 16.5621 9.4379 15.6666 8.33333 15.6666Z" stroke="#3D67FF" stroke-width="2" stroke-linecap="round" stroke-linejoin="round"/>
<path d="M8.33333 1H3C1.89543 1 1 1.89543 1 3V8.33333C1 9.4379 1.89543 10.3333 3 10.3333H8.33333C9.4379 10.3333 10.3333 9.4379 10.3333 8.33333V3C10.3333 1.89543 9.4379 1 8.33333 1Z" stroke="#3D67FF" stroke-width="2" stroke-linecap="round" stroke-linejoin="round"/>
<path d="M15.6665 2.33337H24.9998" stroke="#3D67FF" stroke-width="2" stroke-linecap="round" stroke-linejoin="round"/>
<path d="M15.6665 9H24.9998" stroke="#92A9FD" stroke-width="2" stroke-linecap="round" stroke-linejoin="round"/>
<path d="M15.6665 17H24.9998" stroke="#3D67FF" stroke-width="2" stroke-linecap="round" stroke-linejoin="round"/>
<path d="M15.6665 23.6666H24.9998" stroke="#92A9FD" stroke-width="2" stroke-linecap="round" stroke-linejoin="round"/>
</svg>
