<svg width="28" height="21" viewBox="0 0 28 21" fill="none" xmlns="http://www.w3.org/2000/svg">
<path d="M13.9975 12.7935C15.4338 12.7935 16.5981 11.6292 16.5981 10.193C16.5981 8.75672 15.4338 7.59241 13.9975 7.59241C12.5613 7.59241 11.397 8.75672 11.397 10.193C11.397 11.6292 12.5613 12.7935 13.9975 12.7935Z" stroke="#92A9FD" stroke-width="2" stroke-linecap="round" stroke-linejoin="round"/>
<path d="M19.5132 4.67979C20.2385 5.40435 20.814 6.26478 21.2066 7.21189C21.5992 8.159 21.8013 9.17421 21.8013 10.1995C21.8013 11.2247 21.5992 12.2399 21.2066 13.187C20.814 14.1341 20.2385 14.9946 19.5132 15.7191M8.48682 15.7061C7.76145 14.9816 7.18601 14.1211 6.7934 13.174C6.40078 12.2269 6.1987 11.2117 6.1987 10.1865C6.1987 9.1612 6.40078 8.146 6.7934 7.19889C7.18601 6.25178 7.76145 5.39135 8.48682 4.66678M23.193 1C25.6306 3.43838 27 6.74509 27 10.193C27 13.6408 25.6306 16.9475 23.193 19.3859M4.80704 19.3859C2.36939 16.9475 1 13.6408 1 10.193C1 6.74509 2.36939 3.43838 4.80704 1" stroke="#3D67FF" stroke-width="2" stroke-linecap="round" stroke-linejoin="round"/>
</svg>
