<svg width="42" height="42" viewBox="0 0 42 42" fill="none" xmlns="http://www.w3.org/2000/svg">
<path d="M41.9676 16.818C42.1775 15.7175 41.3381 14.3969 40.2889 14.3969L28.3281 12.6361L22.8724 1.19066C22.6625 0.750453 22.4527 0.530349 22.033 0.310245C20.9838 -0.350066 19.7248 0.0901414 19.0953 1.19066L13.8493 12.6361L1.88854 14.3969C1.25903 14.3969 0.839353 14.617 0.629514 15.0572C-0.209838 15.9376 -0.209838 17.2582 0.629514 18.1387L9.23288 26.9428L7.1345 39.4887C7.1345 39.9289 7.1345 40.3691 7.34434 40.8093C7.97385 41.9099 9.23288 42.3501 10.2821 41.6898L20.9838 35.747L31.6856 41.6898C31.8954 41.9099 32.3151 41.9099 32.7348 41.9099C32.9446 41.9099 32.9446 41.9099 33.1544 41.9099C34.2036 41.6898 35.043 40.5892 34.8331 39.2686L32.7348 26.7227L41.3381 17.9185C41.7578 17.6984 41.9676 17.2582 41.9676 16.818Z" fill="#A8ABBB"/>
</svg>
