<svg width="20" height="19" viewBox="0 0 20 19" fill="none" xmlns="http://www.w3.org/2000/svg">
<path d="M8.26081 7.74402C8.06388 7.19713 8.20063 6.5857 8.61178 6.17482L12.8431 1.94622C13.6207 1.16919 14.9423 1.46479 15.3147 2.49903L18.4039 11.0778C18.7763 12.1121 17.9465 13.1824 16.8521 13.0794L10.8963 12.5191C10.3176 12.4647 9.82246 12.0808 9.62553 11.5339L8.26081 7.74402Z" fill="#3D67FF"/>
<rect x="6.07471" y="12.1863" width="2.12277" height="4.66939" rx="1.06139" transform="rotate(-35.0647 6.07471 12.1863)" fill="#3D67FF"/>
<path d="M2.2989 10.4784C2.01823 9.699 2.42256 8.83962 3.202 8.55895L6.05729 7.53078C6.83672 7.25011 7.6961 7.65443 7.97677 8.43387L8.96661 11.1827C9.24728 11.9621 8.84295 12.8215 8.06352 13.1022L5.20822 14.1304C4.42879 14.411 3.56941 14.0067 3.28874 13.2273L2.2989 10.4784Z" fill="#3D67FF" stroke="#F9F9F9"/>
</svg>
