<svg width="24" height="24" viewBox="0 0 24 24" fill="none" xmlns="http://www.w3.org/2000/svg">
<path d="M17.3333 4.00016H21.3333C21.6869 4.00016 22.026 4.14064 22.2761 4.39069C22.5261 4.64074 22.6666 4.97987 22.6666 5.3335V20.0002C22.6666 20.7074 22.3856 21.3857 21.8855 21.8858C21.3854 22.3859 20.7072 22.6668 19.9999 22.6668C19.2927 22.6668 18.6144 22.3859 18.1143 21.8858C17.6142 21.3857 17.3333 20.7074 17.3333 20.0002V2.66683C17.3333 2.31321 17.1928 1.97407 16.9427 1.72402C16.6927 1.47397 16.3535 1.3335 15.9999 1.3335H2.66659C2.31296 1.3335 1.97382 1.47397 1.72378 1.72402C1.47373 1.97407 1.33325 2.31321 1.33325 2.66683V18.6668C1.33325 19.7277 1.75468 20.7451 2.50482 21.4953C3.25497 22.2454 4.27239 22.6668 5.33325 22.6668H19.9999" stroke="#3D67FF" stroke-width="2" stroke-linecap="round" stroke-linejoin="round"/>
<path d="M6.6665 6.66699H11.9998" stroke="#3D67FF" stroke-width="2" stroke-linecap="round" stroke-linejoin="round"/>
<path d="M6.6665 12H11.9998" stroke="#3D67FF" stroke-width="2" stroke-linecap="round" stroke-linejoin="round"/>
<path d="M6.6665 17.3335H11.9998" stroke="#3D67FF" stroke-width="2" stroke-linecap="round" stroke-linejoin="round"/>
</svg>
