<svg width="16" height="16" viewBox="0 0 16 16" fill="none" xmlns="http://www.w3.org/2000/svg">
<path d="M11.7087 8.59065L9.87479 10.4246C9.69784 10.6015 9.41095 10.6015 9.23403 10.4246L9.21194 10.4025C9.03498 10.2255 9.03498 9.93865 9.21194 9.76172L11.7087 7.26493C11.9833 6.99036 11.9833 6.5452 11.7087 6.27063C11.4342 5.99605 10.989 5.99605 10.7144 6.27063L8.21763 8.76742C8.04068 8.94437 7.75379 8.94437 7.57687 8.76742L7.55477 8.74532C7.37782 8.56837 7.37782 8.28151 7.55477 8.10456L10.7144 4.94491C10.989 4.67033 10.989 4.22518 10.7144 3.9506C10.4398 3.67603 9.99469 3.67603 9.72012 3.9506L6.56047 7.11025C6.38351 7.28721 6.09663 7.28721 5.9197 7.11025C5.74278 6.9333 5.74275 6.64641 5.9197 6.46949L8.41649 3.9727C8.69107 3.69812 8.69107 3.25297 8.41649 2.97839C8.14192 2.70382 7.69676 2.70382 7.42219 2.97839C6.86813 3.53248 2.36727 8.03331 2.18006 8.22052C2.04482 7.11572 1.87468 5.44315 1.87459 5.44206V5.44209C1.87459 5.17861 1.76422 4.9151 1.54342 4.72692C0.955682 4.22602 0.0194361 4.62206 0 5.41903C0.274293 10.0821 -0.543586 12.5785 1.60001 14.7221C3.06437 16.1865 5.76999 16.518 7.23436 15.0536L12.703 9.58495C12.9776 9.31038 12.9776 8.86522 12.703 8.59065C12.4284 8.31607 11.9833 8.31607 11.7087 8.59065Z" fill="#A8ABBB"/>
<path d="M0.934055 3.56672C1.32465 3.56672 1.704 3.68827 2.01867 3.91107C1.94461 3.22706 1.88774 2.6696 1.88774 2.6696C1.88774 2.66928 1.88774 2.66928 1.88774 2.66897C1.88742 2.40587 1.77712 2.14276 1.55651 1.95465C0.968647 1.45337 0.0324322 1.84991 0.0131836 2.64679C0.0363069 3.0402 0.0516183 3.41798 0.0616176 3.78139C0.328474 3.6414 0.62814 3.56672 0.934055 3.56672Z" fill="#A8ABBB"/>
<path d="M2.89538 6.17954L6.76042 2.31419C7.04072 2.03421 7.40413 1.86798 7.79535 1.8386L8.43374 1.20021C8.7081 0.925543 8.7081 0.480575 8.43374 0.205907C8.15814 -0.0690731 7.71354 -0.0681981 7.43944 0.205907C6.99291 0.652125 3.98749 3.65785 2.73633 4.90901C2.78164 5.06244 2.80757 5.22211 2.81226 5.38523C2.8232 5.48959 2.85413 5.79145 2.89538 6.17954Z" fill="#A8ABBB"/>
<path d="M9.48511 2.97722C9.67353 2.88285 9.87914 2.82567 10.0932 2.81005L10.7319 2.17134C11.0063 1.89699 11.0063 1.45171 10.7319 1.17704C10.4575 0.903308 10.0121 0.902495 9.73759 1.17704L8.81641 2.09822C9.1212 2.29702 9.36762 2.60453 9.48511 2.97722Z" fill="#A8ABBB"/>
<path d="M15.5302 2.87476H14.5927C14.3339 2.87476 14.124 3.08462 14.124 3.34347C14.124 3.60233 14.3339 3.81219 14.5927 3.81219H15.5302C15.789 3.81219 15.9989 3.60233 15.9989 3.34347C15.9989 3.08462 15.789 2.87476 15.5302 2.87476Z" fill="#A8ABBB"/>
<path d="M14.8929 0.138019C14.7098 -0.0450299 14.413 -0.0450299 14.23 0.138019L13.2926 1.07545C13.1095 1.2585 13.1095 1.55526 13.2926 1.73831C13.4756 1.92136 13.7724 1.92136 13.9554 1.73831L14.8929 0.800878C15.0759 0.61786 15.0759 0.321069 14.8929 0.138019Z" fill="#A8ABBB"/>
</svg>
