<svg width="42" height="42" viewBox="0 0 42 42" fill="none" xmlns="http://www.w3.org/2000/svg">
<path d="M41.9296 15.8874C41.7971 15.4857 41.5562 15.1329 41.2361 14.8717C40.916 14.6105 40.5303 14.4522 40.126 14.416L28.1932 12.5931L22.8455 1.23889C22.6738 0.867577 22.4057 0.55443 22.0719 0.33532C21.7381 0.116211 21.3521 0 20.9581 0C20.5641 0 20.1781 0.116211 19.8443 0.33532C19.5105 0.55443 19.2424 0.867577 19.0707 1.23889L13.7229 12.5712L1.79019 14.416C1.40205 14.4737 1.03715 14.6443 0.736895 14.9083C0.436639 15.1722 0.213048 15.5191 0.091498 15.9094C-0.0197661 16.2908 -0.0297507 16.6967 0.0626156 17.0837C0.154982 17.4706 0.346212 17.8238 0.615784 18.1056L9.277 26.8903L7.17985 39.3646C7.10498 39.7763 7.14418 40.2019 7.29283 40.591C7.44147 40.9802 7.69334 41.3167 8.01871 41.5608C8.33583 41.7982 8.70987 41.9383 9.09884 41.9655C9.4878 41.9926 9.8763 41.9057 10.2207 41.7145L20.9581 35.8507L31.6535 41.7365C31.9479 41.9103 32.2803 42.0011 32.6182 42C33.0625 42.0016 33.4957 41.8555 33.8555 41.5827C34.1809 41.3386 34.4328 41.0022 34.5814 40.613C34.7301 40.2238 34.7693 39.7983 34.6944 39.3865L32.5973 26.9122L41.2585 18.1275C41.5613 17.8589 41.785 17.5058 41.9038 17.1093C42.0226 16.7127 42.0315 16.289 41.9296 15.8874ZM29.0321 24.6721C28.7862 24.9213 28.6022 25.2296 28.4962 25.5703C28.3901 25.911 28.3654 26.2737 28.4239 26.6267L29.9339 35.8287L22.0486 31.4364C21.7452 31.2672 21.4067 31.1787 21.063 31.1787C20.7192 31.1787 20.3807 31.2672 20.0773 31.4364L12.192 35.8287L13.702 26.6267C13.7606 26.2737 13.7358 25.911 13.6298 25.5703C13.5237 25.2296 13.3397 24.9213 13.0938 24.6721L6.80236 18.0836L15.6313 16.7439C15.9711 16.6944 16.294 16.5584 16.5719 16.3478C16.8498 16.1373 17.0741 15.8585 17.2252 15.536L20.9581 7.16857L24.9007 15.558C25.0518 15.8805 25.2761 16.1592 25.554 16.3698C25.8319 16.5804 26.1548 16.7164 26.4946 16.7659L35.3235 18.1056L29.0321 24.6721Z" fill="#A8ABBB"/>
</svg>
