<svg width="14" height="18" viewBox="0 0 14 18" fill="none" xmlns="http://www.w3.org/2000/svg">
<path d="M3.06681 16.8751H10.9375C12.1801 16.8751 13.1875 15.8677 13.1875 14.6251V5.82319C13.1875 5.24759 12.9669 4.69387 12.5711 4.27596L10.2524 1.82784C9.82746 1.3792 9.23673 1.12506 8.6188 1.12506H8.1958H3.08834C1.84738 1.12506 0.840717 2.1298 0.838343 3.37075L0.816814 14.6208C0.814433 15.8651 1.82249 16.8751 3.06681 16.8751Z" stroke="#3D67FF" stroke-width="1.5"/>
<path d="M4.29999 12.6001C4.65999 12.6001 8.04999 12.6001 9.69999 12.6001M4.29999 9.00006H9.69999" stroke="#3D67FF" stroke-width="1.5" stroke-linecap="round"/>
<path d="M8.6875 1.68756V3.93756C8.6875 4.86954 9.44302 5.62506 10.375 5.62506H12.625" stroke="#3D67FF" stroke-width="1.5"/>
</svg>
