<svg width="20" height="21" viewBox="0 0 20 21" fill="none" xmlns="http://www.w3.org/2000/svg">
<path d="M11.5 3H5.5C5.10218 3 4.72064 3.15804 4.43934 3.43934C4.15804 3.72064 4 4.10218 4 4.5V16.5C4 16.8978 4.15804 17.2794 4.43934 17.5607C4.72064 17.842 5.10218 18 5.5 18H14.5C14.8978 18 15.2794 17.842 15.5607 17.5607C15.842 17.2794 16 16.8978 16 16.5V7.5L11.5 3Z" stroke="#3D67FF" stroke-width="1.5" stroke-linecap="round" stroke-linejoin="round"/>
<path d="M11.7369 3.5V7.26252H15.4999" stroke="#3D67FF" stroke-width="1.5" stroke-linecap="round" stroke-linejoin="round"/>
<path d="M13 11H7" stroke="#3D67FF" stroke-width="1.5" stroke-linecap="round" stroke-linejoin="round"/>
<path d="M13 14H7" stroke="#3D67FF" stroke-width="1.5" stroke-linecap="round" stroke-linejoin="round"/>
<path d="M9 8H8H7" stroke="#3D67FF" stroke-width="1.5" stroke-linecap="round" stroke-linejoin="round"/>
</svg>
