<svg width="20" height="21" viewBox="0 0 20 21" fill="none" xmlns="http://www.w3.org/2000/svg">
<path d="M17 14.6667C17 15.0203 16.8525 15.3594 16.5899 15.6095C16.3274 15.8595 15.9713 16 15.6 16H4.4C4.0287 16 3.6726 15.8595 3.41005 15.6095C3.1475 15.3594 3 15.0203 3 14.6667V5.33333C3 4.97971 3.1475 4.64057 3.41005 4.39052C3.6726 4.14048 4.0287 4 4.4 4H7.9L9.3 6H15.6C15.9713 6 16.3274 6.14048 16.5899 6.39052C16.8525 6.64057 17 6.97971 17 7.33333V14.6667Z" stroke="#3D67FF" stroke-width="1.5" stroke-linecap="round" stroke-linejoin="round"/>
<path d="M10 9V13" stroke="#3D67FF" stroke-width="1.5" stroke-linecap="round" stroke-linejoin="round"/>
<path d="M8 11H12" stroke="#3D67FF" stroke-width="1.5" stroke-linecap="round" stroke-linejoin="round"/>
</svg>
