<svg width="20" height="21" viewBox="0 0 20 21" fill="none" xmlns="http://www.w3.org/2000/svg">
<path d="M2.5 6.33333C2.5 4.49238 3.99238 3 5.83333 3H14.1667C16.0076 3 17.5 4.49238 17.5 6.33333V14.6667C17.5 16.5076 16.0076 18 14.1667 18H5.83333C3.99238 18 2.5 16.5076 2.5 14.6667V6.33333Z" stroke="#3D67FF" stroke-width="1.5"/>
<path d="M7.49992 9.66683C8.42039 9.66683 9.16659 8.92064 9.16659 8.00016C9.16659 7.07969 8.42039 6.3335 7.49992 6.3335C6.57944 6.3335 5.83325 7.07969 5.83325 8.00016C5.83325 8.92064 6.57944 9.66683 7.49992 9.66683Z" stroke="#3D67FF" stroke-width="1.5" stroke-linecap="round" stroke-linejoin="round"/>
<path d="M3.33325 17.1666L5.7281 14.1731C6.25907 13.5094 7.20937 13.3618 7.91659 13.8333C8.6238 14.3048 9.5741 14.1572 10.1051 13.4935L11.4377 11.8277C12.0209 11.0988 13.089 10.9909 13.8062 11.5885L17.4999 14.6666" stroke="#3D67FF" stroke-width="1.5"/>
</svg>
