<svg width="11" height="14" viewBox="0 0 11 14" fill="none" xmlns="http://www.w3.org/2000/svg">
<path d="M10.5195 6.14636L1.52148 0.647335C1.36992 0.554654 1.1964 0.504029 1.01878 0.500667C0.841162 0.497306 0.665852 0.541329 0.510892 0.628208C0.355932 0.715088 0.226917 0.841685 0.137123 0.994974C0.047329 1.14826 -1.91368e-06 1.32271 0 1.50036V12.4994C0.00014455 12.677 0.0475667 12.8513 0.137395 13.0045C0.227223 13.1577 0.356219 13.2843 0.511128 13.3711C0.666038 13.458 0.841277 13.502 1.01884 13.4987C1.19641 13.4954 1.3699 13.4449 1.52148 13.3524L10.5195 7.85339C10.6657 7.76401 10.7865 7.63858 10.8703 7.48913C10.954 7.33968 10.998 7.17121 10.998 6.99988C10.998 6.82854 10.954 6.66008 10.8703 6.51062C10.7865 6.36117 10.6657 6.23575 10.5195 6.14636Z" fill="#A8ABBB"/>
</svg>
