<svg width="20" height="21" viewBox="0 0 20 21" fill="none" xmlns="http://www.w3.org/2000/svg">
<path d="M12.268 7.37124L8.69297 10.9772L7.31797 9.59349C7.24327 9.5057 7.15133 9.43441 7.04795 9.38407C6.94456 9.33374 6.83195 9.30545 6.71718 9.30099C6.60242 9.29653 6.48797 9.31599 6.38104 9.35815C6.2741 9.40031 6.17698 9.46426 6.09576 9.54598C6.01455 9.6277 5.951 9.72544 5.90911 9.83305C5.86721 9.94066 5.84787 10.0558 5.85231 10.1713C5.85674 10.2868 5.88485 10.4001 5.93487 10.5042C5.98489 10.6082 6.05574 10.7007 6.14297 10.7759L8.10131 12.755C8.17917 12.8327 8.27152 12.8942 8.37305 12.9359C8.47458 12.9776 8.5833 12.9988 8.69297 12.9981C8.91159 12.9972 9.12109 12.9099 9.27631 12.755L13.443 8.56203C13.5211 8.48407 13.5831 8.39132 13.6254 8.28913C13.6677 8.18694 13.6895 8.07734 13.6895 7.96663C13.6895 7.85593 13.6677 7.74632 13.6254 7.64413C13.5831 7.54194 13.5211 7.44919 13.443 7.37124C13.2868 7.21505 13.0756 7.12738 12.8555 7.12738C12.6353 7.12738 12.4241 7.21505 12.268 7.37124ZM10.0013 1.67725C8.35313 1.67725 6.74196 2.16907 5.37155 3.09052C4.00114 4.01197 2.93304 5.32166 2.30231 6.85397C1.67158 8.38628 1.50655 10.0724 1.8281 11.6991C2.14964 13.3258 2.94331 14.82 4.10875 15.9928C5.27419 17.1656 6.75905 17.9642 8.37555 18.2878C9.99206 18.6114 11.6676 18.4453 13.1903 17.8106C14.7131 17.1759 16.0145 16.1011 16.9302 14.722C17.8459 13.343 18.3346 11.7217 18.3346 10.0631C18.3346 8.96185 18.1191 7.87139 17.7003 6.85397C17.2815 5.83655 16.6677 4.9121 15.8939 4.1334C15.12 3.35471 14.2014 2.73701 13.1903 2.31558C12.1793 1.89415 11.0957 1.67725 10.0013 1.67725ZM10.0013 16.7718C8.68276 16.7718 7.39383 16.3783 6.2975 15.6412C5.20118 14.904 4.34669 13.8562 3.84211 12.6304C3.33752 11.4045 3.2055 10.0557 3.46274 8.7543C3.71997 7.45294 4.35491 6.25757 5.28726 5.31934C6.21961 4.38112 7.4075 3.74218 8.7007 3.48332C9.99391 3.22447 11.3344 3.35732 12.5525 3.86508C13.7707 4.37285 14.8119 5.23272 15.5444 6.33595C16.277 7.43919 16.668 8.73624 16.668 10.0631C16.668 11.8423 15.9656 13.5487 14.7154 14.8068C13.4651 16.065 11.7694 16.7718 10.0013 16.7718Z" fill="#3D67FF"/>
</svg>
