<svg width="20" height="20" viewBox="0 0 20 20" fill="none" xmlns="http://www.w3.org/2000/svg">
<path d="M18.9927 5.5942C18.9927 5.04069 18.946 4.48942 18.8138 3.95053C18.5765 2.96893 18.0168 2.2191 17.1792 1.66839C16.7484 1.38713 16.2742 1.21444 15.7702 1.12331C15.3832 1.0556 14.9914 1.01836 14.5986 1.01193C14.5693 1.00912 14.5373 1.00293 14.5046 1.00012H5.48748C5.3733 1.00912 5.25912 1.01475 5.14493 1.02037C4.58526 1.05244 4.02897 1.11094 3.50136 1.32188C2.49958 1.71733 1.77566 2.40867 1.3538 3.40488C1.20756 3.74183 1.13387 4.09903 1.08156 4.46242C1.03769 4.75549 1.01406 5.05137 1.00562 5.34726C1.00562 5.37088 1 5.39395 1 5.41757V14.5849L1.01744 14.9016C1.05569 15.5142 1.13443 16.1206 1.39261 16.6831C1.87916 17.7468 2.69645 18.4466 3.8186 18.7836C4.1319 18.8803 4.46039 18.9242 4.78832 18.9534C5.20456 18.9945 5.62023 19.0001 6.03647 19.0001H14.3095C14.7021 19.0001 15.0947 18.9737 15.4873 18.9242C16.1055 18.8449 16.6854 18.6632 17.2102 18.3178C17.8314 17.9153 18.3212 17.3398 18.6192 16.6623C18.7598 16.3456 18.8391 16.0092 18.8976 15.6689C18.9826 15.1621 19 14.649 19 14.1366C18.9972 11.2886 19 8.4411 18.9972 5.59308L18.9927 5.5942ZM14.1762 8.58511V12.8687C14.1762 13.182 14.1323 13.4897 13.9917 13.7738C13.7751 14.2159 13.4235 14.4944 12.9516 14.6294C12.6902 14.7043 12.4207 14.7475 12.149 14.7582C11.8072 14.7784 11.47 14.6722 11.2015 14.4599C10.933 14.2476 10.7519 13.9439 10.6927 13.6067C10.6385 13.3033 10.6853 12.9905 10.8261 12.7164C10.9668 12.4422 11.1936 12.2218 11.4717 12.089C11.7119 11.972 11.9729 11.9017 12.2333 11.8488C12.5174 11.7875 12.8014 11.7318 13.0827 11.6671C13.2908 11.6205 13.4252 11.4944 13.4663 11.2801C13.4781 11.2334 13.4809 11.1834 13.4809 11.1367V7.05281C13.4799 7.00621 13.4731 6.95992 13.4607 6.91499C13.4314 6.8008 13.3493 6.7333 13.2323 6.73893C13.1119 6.74455 12.9949 6.76537 12.8779 6.78899C12.3065 6.90037 11.7355 7.01456 11.1669 7.13156L8.39271 7.69127C8.38089 7.69408 8.36627 7.70027 8.35446 7.70027C8.14634 7.75877 8.07322 7.85271 8.06422 8.06928C8.0614 8.10134 8.06422 8.13397 8.06422 8.16603C8.0614 10.1174 8.06422 12.0688 8.0614 14.0196C8.0614 14.3363 8.02597 14.6468 7.90053 14.9393C7.69242 15.4197 7.32343 15.7218 6.82563 15.8652C6.56246 15.9418 6.29072 15.9851 6.01678 15.994C5.29905 16.0205 4.70113 15.5429 4.57851 14.8369C4.47277 14.2277 4.7512 13.5713 5.44249 13.2782C5.71192 13.1668 5.99034 13.1055 6.2744 13.047L6.919 12.9154C7.20587 12.8541 7.35549 12.6724 7.37011 12.3793V12.2679V5.60545C7.37011 5.51151 7.38193 5.41814 7.40217 5.32701C7.45505 5.11325 7.60748 4.99006 7.81222 4.94C8.00291 4.88993 8.19921 4.85506 8.39214 4.81399C8.94281 4.70261 9.49067 4.59123 10.0413 4.48267L11.7434 4.13672C12.2474 4.03715 12.748 3.93478 13.252 3.83521C13.4162 3.80315 13.5833 3.76771 13.7498 3.7559C13.981 3.73565 14.1424 3.8819 14.166 4.11647C14.1717 4.17216 14.175 4.22785 14.175 4.28354V8.58173L14.1762 8.58511Z" fill="white"/>
</svg>
