<svg width="18" height="18" viewBox="0 0 18 18" fill="none" xmlns="http://www.w3.org/2000/svg">
<path d="M8.25024 3.00098H3.00024C2.60242 3.00098 2.22089 3.15901 1.93958 3.44032C1.65828 3.72162 1.50024 4.10315 1.50024 4.50098V15.001C1.50024 15.3988 1.65828 15.7803 1.93958 16.0616C2.22089 16.3429 2.60242 16.501 3.00024 16.501H13.5002C13.8981 16.501 14.2796 16.3429 14.5609 16.0616C14.8422 15.7803 15.0002 15.3988 15.0002 15.001V9.75098" stroke="#A8ABBB" stroke-width="1.5" stroke-linecap="round" stroke-linejoin="round"/>
<path d="M13.875 1.87517C14.1734 1.5768 14.578 1.40918 15 1.40918C15.422 1.40918 15.8266 1.5768 16.125 1.87517C16.4234 2.17354 16.591 2.57821 16.591 3.00017C16.591 3.42213 16.4234 3.8268 16.125 4.12517L9 11.2502L6 12.0002L6.75 9.00017L13.875 1.87517Z" stroke="#A8ABBB" stroke-width="1.5" stroke-linecap="round" stroke-linejoin="round"/>
</svg>
