<svg width="24" height="24" viewBox="0 0 24 24" fill="none" xmlns="http://www.w3.org/2000/svg">
<path d="M11 4.00146H4C3.46957 4.00146 2.96086 4.21218 2.58579 4.58725C2.21071 4.96232 2 5.47103 2 6.00147V20.0015C2 20.5319 2.21071 21.0406 2.58579 21.4157C2.96086 21.7908 3.46957 22.0015 4 22.0015H18C18.5304 22.0015 19.0391 21.7908 19.4142 21.4157C19.7893 21.0406 20 20.5319 20 20.0015V13.0015" stroke="#F9F9F9" stroke-width="2" stroke-linecap="round" stroke-linejoin="round"/>
<path d="M18.5 2.49998C18.8978 2.10216 19.4374 1.87866 20 1.87866C20.5626 1.87866 21.1022 2.10216 21.5 2.49998C21.8978 2.89781 22.1213 3.43737 22.1213 3.99998C22.1213 4.56259 21.8978 5.10216 21.5 5.49998L12 15L8 16L9 12L18.5 2.49998Z" stroke="#F9F9F9" stroke-width="2" stroke-linecap="round" stroke-linejoin="round"/>
</svg>
