<svg width="20" height="20" viewBox="0 0 20 20" fill="none" xmlns="http://www.w3.org/2000/svg">
<path d="M10.0001 7.50045C9.33704 7.50045 8.70115 7.76384 8.23231 8.23268C7.76347 8.70152 7.50008 9.33741 7.50008 10.0004C7.50008 10.6635 7.76347 11.2994 8.23231 11.7682C8.70115 12.2371 9.33704 12.5004 10.0001 12.5004C10.6631 12.5004 11.299 12.2371 11.7678 11.7682C12.2367 11.2994 12.5001 10.6635 12.5001 10.0004C12.5001 9.33741 12.2367 8.70152 11.7678 8.23268C11.299 7.76384 10.6631 7.50045 10.0001 7.50045ZM10.0001 5.83378C11.1052 5.83378 12.165 6.27277 12.9464 7.05417C13.7278 7.83557 14.1667 8.89538 14.1667 10.0004C14.1667 11.1055 13.7278 12.1653 12.9464 12.9467C12.165 13.7281 11.1052 14.1671 10.0001 14.1671C8.89501 14.1671 7.8352 13.7281 7.0538 12.9467C6.2724 12.1653 5.83341 11.1055 5.83341 10.0004C5.83341 8.89538 6.2724 7.83557 7.0538 7.05417C7.8352 6.27277 8.89501 5.83378 10.0001 5.83378ZM15.4167 5.62545C15.4167 5.90171 15.307 6.16667 15.1117 6.36202C14.9163 6.55737 14.6513 6.66711 14.3751 6.66711C14.0988 6.66711 13.8339 6.55737 13.6385 6.36202C13.4432 6.16667 13.3334 5.90171 13.3334 5.62545C13.3334 5.34918 13.4432 5.08423 13.6385 4.88888C13.8339 4.69353 14.0988 4.58378 14.3751 4.58378C14.6513 4.58378 14.9163 4.69353 15.1117 4.88888C15.307 5.08423 15.4167 5.34918 15.4167 5.62545ZM10.0001 3.33378C7.93841 3.33378 7.60175 3.33961 6.64258 3.38211C5.98925 3.41295 5.55091 3.50045 5.14425 3.65878C4.78258 3.79878 4.52175 3.96628 4.24425 4.24461C3.98342 4.49661 3.78288 4.80427 3.65758 5.14461C3.49925 5.55295 3.41175 5.99045 3.38175 6.64295C3.33841 7.56295 3.33341 7.88461 3.33341 10.0004C3.33341 12.0621 3.33925 12.3988 3.38175 13.3579C3.41258 14.0104 3.50008 14.4496 3.65758 14.8554C3.79925 15.2179 3.96591 15.4788 4.24258 15.7554C4.52341 16.0354 4.78425 16.2029 5.14258 16.3413C5.55425 16.5004 5.99258 16.5888 6.64258 16.6188C7.56258 16.6621 7.88425 16.6671 10.0001 16.6671C12.0617 16.6671 12.3984 16.6613 13.3576 16.6188C14.0092 16.5879 14.4484 16.5004 14.8551 16.3429C15.2159 16.2021 15.4784 16.0346 15.7551 15.7579C16.0359 15.4771 16.2034 15.2163 16.3417 14.8579C16.5001 14.4471 16.5884 14.0079 16.6184 13.3579C16.6617 12.4379 16.6667 12.1163 16.6667 10.0004C16.6667 7.93878 16.6609 7.60211 16.6184 6.64295C16.5876 5.99128 16.5001 5.55128 16.3417 5.14461C16.2162 4.80462 16.016 4.49708 15.7559 4.24461C15.504 3.98365 15.1963 3.78309 14.8559 3.65795C14.4476 3.49961 14.0092 3.41211 13.3576 3.38211C12.4376 3.33878 12.1159 3.33378 10.0001 3.33378ZM10.0001 1.66711C12.2642 1.66711 12.5467 1.67545 13.4351 1.71711C14.3226 1.75878 14.9267 1.89795 15.4584 2.10461C16.0084 2.31628 16.4717 2.60295 16.9351 3.06545C17.3588 3.48203 17.6867 3.98594 17.8959 4.54211C18.1017 5.07295 18.2417 5.67795 18.2834 6.56545C18.3226 7.45378 18.3334 7.73628 18.3334 10.0004C18.3334 12.2646 18.3251 12.5471 18.2834 13.4354C18.2417 14.3229 18.1017 14.9271 17.8959 15.4588C17.6873 16.0153 17.3593 16.5193 16.9351 16.9354C16.5184 17.359 16.0145 17.6869 15.4584 17.8963C14.9276 18.1021 14.3226 18.2421 13.4351 18.2838C12.5467 18.3229 12.2642 18.3338 10.0001 18.3338C7.73591 18.3338 7.45341 18.3254 6.56508 18.2838C5.67758 18.2421 5.07341 18.1021 4.54175 17.8963C3.98535 17.6875 3.48135 17.3596 3.06508 16.9354C2.64125 16.5189 2.31336 16.015 2.10425 15.4588C1.89758 14.9279 1.75841 14.3229 1.71675 13.4354C1.67758 12.5471 1.66675 12.2646 1.66675 10.0004C1.66675 7.73628 1.67508 7.45378 1.71675 6.56545C1.75841 5.67711 1.89758 5.07378 2.10425 4.54211C2.31278 3.9856 2.64075 3.48155 3.06508 3.06545C3.48147 2.64147 3.98544 2.31356 4.54175 2.10461C5.07341 1.89795 5.67675 1.75878 6.56508 1.71711C7.45341 1.67795 7.73591 1.66711 10.0001 1.66711Z" fill="white"/>
</svg>
