<svg width="16" height="16" viewBox="0 0 16 16" fill="none" xmlns="http://www.w3.org/2000/svg">
<path d="M7.99979 2.98642C7.49611 2.98642 7.00374 3.13578 6.58494 3.41561C6.16614 3.69544 5.83973 4.09318 5.64698 4.55852C5.45423 5.02386 5.4038 5.53591 5.50206 6.02992C5.60032 6.52392 5.84287 6.97769 6.19903 7.33385C6.55519 7.69001 7.00896 7.93256 7.50296 8.03082C7.99697 8.12908 8.50902 8.07865 8.97436 7.8859C9.4397 7.69315 9.83744 7.36674 10.1173 6.94794C10.3971 6.52914 10.5465 6.03677 10.5465 5.53309C10.5465 4.85767 10.2782 4.20991 9.80056 3.73232C9.32297 3.25473 8.67521 2.98642 7.99979 2.98642ZM7.99979 7.19086C7.67192 7.19086 7.3514 7.09364 7.07878 6.91148C6.80616 6.72932 6.59368 6.47041 6.46821 6.16749C6.34273 5.86457 6.3099 5.53125 6.37387 5.20967C6.43783 4.88809 6.59572 4.5927 6.82757 4.36086C7.05941 4.12902 7.3548 3.97113 7.67638 3.90716C7.99795 3.8432 8.33128 3.87603 8.6342 4.0015C8.93712 4.12697 9.19603 4.33945 9.37819 4.61207C9.56034 4.88469 9.65757 5.20521 9.65757 5.53309C9.65639 5.97199 9.48122 6.39251 9.17045 6.70244C8.85969 7.01237 8.43869 7.18642 7.99979 7.18642V7.19086Z" fill="#222222"/>
<path d="M7.99923 0.888763C6.61487 0.88992 5.28722 1.43885 4.30625 2.41565C3.32529 3.39245 2.77072 4.71776 2.76367 6.1021C2.76367 8.17765 3.92812 9.91543 4.78145 11.1821L4.93701 11.4132C5.78602 12.6437 6.69682 13.8304 7.66589 14.9688L8.00367 15.3643L8.34145 14.9688C9.31041 13.8303 10.2212 12.6436 11.0703 11.4132L11.2259 11.1777C12.0748 9.91099 13.2392 8.17765 13.2392 6.1021C13.2322 4.71699 12.677 3.39101 11.6951 2.41408C10.7131 1.43715 9.38435 0.888745 7.99923 0.888763ZM10.4837 10.6665L10.3237 10.9021C9.55923 12.0488 8.54589 13.3332 7.99923 13.9688C7.47478 13.3332 6.43923 12.0488 5.67478 10.9021L5.51923 10.6665C4.73256 9.49321 3.65256 7.88876 3.65256 6.08432C3.65256 5.51351 3.76499 4.94828 3.98343 4.42092C4.20187 3.89356 4.52204 3.41439 4.92567 3.01076C5.3293 2.60714 5.80847 2.28696 6.33583 2.06852C6.86319 1.85008 7.42842 1.73765 7.99923 1.73765C8.57004 1.73765 9.13526 1.85008 9.66263 2.06852C10.19 2.28696 10.6692 2.60714 11.0728 3.01076C11.4764 3.41439 11.7966 3.89356 12.015 4.42092C12.2335 4.94828 12.3459 5.51351 12.3459 6.08432C12.3459 7.90654 11.2703 9.51099 10.4837 10.6665Z" fill="#222222"/>
</svg>
