<svg width="18" height="18" viewBox="0 0 18 18" fill="none" xmlns="http://www.w3.org/2000/svg">
<path d="M9.00001 3.35974C8.43337 3.35974 7.87945 3.52777 7.4083 3.84258C6.93716 4.15739 6.56994 4.60484 6.3531 5.12835C6.13625 5.65186 6.07951 6.22792 6.19006 6.78367C6.30061 7.33943 6.57347 7.84993 6.97415 8.2506C7.37483 8.65128 7.88532 8.92415 8.44108 9.03469C8.99683 9.14524 9.57289 9.0885 10.0964 8.87166C10.6199 8.65481 11.0674 8.2876 11.3822 7.81645C11.697 7.3453 11.865 6.79138 11.865 6.22474C11.865 5.4649 11.5632 4.73617 11.0259 4.19888C10.4886 3.66159 9.75986 3.35974 9.00001 3.35974ZM9.00001 8.08974C8.63115 8.08974 8.27057 7.98036 7.96387 7.77543C7.65718 7.5705 7.41813 7.27923 7.27698 6.93845C7.13582 6.59766 7.09889 6.22267 7.17085 5.8609C7.24281 5.49912 7.42043 5.16681 7.68126 4.90599C7.94208 4.64516 8.27439 4.46754 8.63617 4.39558C8.99794 4.32362 9.37293 4.36055 9.71372 4.50171C10.0545 4.64286 10.3458 4.88191 10.5507 5.1886C10.7556 5.4953 10.865 5.85588 10.865 6.22474C10.8637 6.7185 10.6666 7.19159 10.317 7.54026C9.96739 7.88894 9.49378 8.08474 9.00001 8.08474V8.08974Z" fill="white"/>
<path d="M8.99986 0.999878C7.44246 1.00118 5.94886 1.61872 4.84527 2.71763C3.74168 3.81653 3.11779 5.3075 3.10986 6.86488C3.10986 9.19988 4.41986 11.1549 5.37986 12.5799L5.55486 12.8399C6.51 14.2242 7.53465 15.5592 8.62486 16.8399L9.00486 17.2849L9.38486 16.8399C10.4749 15.5591 11.4996 14.2241 12.4549 12.8399L12.6299 12.5749C13.5849 11.1499 14.8949 9.19988 14.8949 6.86488C14.8869 5.30663 14.2624 3.81491 13.1577 2.71586C12.053 1.61682 10.5581 0.999858 8.99986 0.999878ZM11.7949 11.9999L11.6149 12.2649C10.7549 13.5549 9.61486 14.9999 8.99986 15.7149C8.40986 14.9999 7.24486 13.5549 6.38486 12.2649L6.20986 11.9999C5.32486 10.6799 4.10986 8.87488 4.10986 6.84488C4.10986 6.20271 4.23635 5.56684 4.48209 4.97356C4.72784 4.38027 5.08803 3.8412 5.54211 3.38713C5.99619 2.93305 6.53526 2.57285 7.12854 2.32711C7.72182 2.08136 8.3577 1.95488 8.99986 1.95488C9.64203 1.95488 10.2779 2.08136 10.8712 2.32711C11.4645 2.57285 12.0035 2.93305 12.4576 3.38713C12.9117 3.8412 13.2719 4.38027 13.5176 4.97356C13.7634 5.56684 13.8899 6.20271 13.8899 6.84488C13.8899 8.89488 12.6799 10.6999 11.7949 11.9999Z" fill="white"/>
</svg>
