<svg width="18" height="18" viewBox="0 0 18 18" fill="none" xmlns="http://www.w3.org/2000/svg">
<path d="M6.75 13.5V3.75L15.75 2.25V12" stroke="#222222" stroke-width="1.5" stroke-linecap="round" stroke-linejoin="round"/>
<path d="M4.5 15.75C5.74264 15.75 6.75 14.7426 6.75 13.5C6.75 12.2574 5.74264 11.25 4.5 11.25C3.25736 11.25 2.25 12.2574 2.25 13.5C2.25 14.7426 3.25736 15.75 4.5 15.75Z" stroke="#222222" stroke-width="1.5" stroke-linecap="round" stroke-linejoin="round"/>
<path d="M13.5 14.25C14.7426 14.25 15.75 13.2426 15.75 12C15.75 10.7574 14.7426 9.75 13.5 9.75C12.2574 9.75 11.25 10.7574 11.25 12C11.25 13.2426 12.2574 14.25 13.5 14.25Z" stroke="#222222" stroke-width="1.5" stroke-linecap="round" stroke-linejoin="round"/>
</svg>
