<svg width="12" height="16" viewBox="0 0 12 16" fill="none" xmlns="http://www.w3.org/2000/svg">
<path d="M5.63475 0.536085C5.54968 0.50423 5.45815 0.493452 5.36801 0.504676C5.27786 0.515899 5.19177 0.548788 5.11711 0.600531C5.04244 0.652274 4.98142 0.721331 4.93926 0.801797C4.89709 0.882262 4.87505 0.971742 4.875 1.06258V10.1578C4.35527 9.74172 3.71188 9.51031 3.04617 9.50006C2.38046 9.48982 1.73026 9.70131 1.19797 10.1012C0.665673 10.5012 0.281541 11.0668 0.106068 11.709C-0.0694039 12.3513 -0.0262452 13.0337 0.228748 13.6487C0.48374 14.2637 0.936078 14.7764 1.51452 15.1061C2.09295 15.4358 2.76462 15.5637 3.42374 15.4696C4.08285 15.3756 4.69196 15.065 5.15512 14.5867C5.61828 14.1084 5.90918 13.4896 5.982 12.8278C5.99389 12.782 5.99993 12.7349 6 12.6876V5.62408L11.2403 7.58908C11.3253 7.62094 11.4169 7.63172 11.507 7.62049C11.5971 7.60927 11.6832 7.57638 11.7579 7.52464C11.8326 7.4729 11.8936 7.40384 11.9357 7.32337C11.9779 7.24291 12 7.15343 12 7.06258V4.61234C12.0001 4.11601 11.8488 3.63148 11.5661 3.22351C11.2834 2.81554 10.883 2.50358 10.4183 2.32933L5.63475 0.536085ZM4.875 12.5001C4.875 12.9974 4.67746 13.4743 4.32583 13.8259C3.9742 14.1775 3.49728 14.3751 3 14.3751C2.50272 14.3751 2.02581 14.1775 1.67418 13.8259C1.32255 13.4743 1.125 12.9974 1.125 12.5001C1.125 12.0028 1.32255 11.5259 1.67418 11.1743C2.02581 10.8226 2.50272 10.6251 3 10.6251C3.49728 10.6251 3.9742 10.8226 4.32583 11.1743C4.67746 11.5259 4.875 12.0028 4.875 12.5001ZM10.875 6.25109L6 4.42259V1.87408L10.023 3.38308C10.2733 3.47686 10.489 3.64481 10.6412 3.86448C10.7935 4.08415 10.875 4.34506 10.875 4.61234V6.25109Z" fill="white"/>
</svg>
