<svg width="12" height="14" viewBox="0 0 12 14" fill="none" xmlns="http://www.w3.org/2000/svg">
<path d="M5.67468 0.365429C5.59906 0.337113 5.51771 0.327534 5.43758 0.33751C5.35745 0.347486 5.28093 0.376721 5.21456 0.422715C5.14819 0.468708 5.09394 0.530093 5.05647 0.601617C5.01899 0.673142 4.99939 0.75268 4.99935 0.833429V8.9181C4.53737 8.54821 3.96547 8.34252 3.37373 8.33341C2.78198 8.3243 2.20402 8.5123 1.73087 8.86779C1.25773 9.22327 0.916274 9.72606 0.760299 10.2969C0.604323 10.8678 0.642687 11.4744 0.869347 12.0211C1.09601 12.5678 1.49808 13.0235 2.01225 13.3166C2.52642 13.6096 3.12346 13.7233 3.70934 13.6397C4.29522 13.5561 4.83665 13.28 5.24834 12.8548C5.66004 12.4297 5.91862 11.8797 5.98335 11.2914C5.99391 11.2507 5.99929 11.2088 5.99935 11.1668V4.8881L10.6573 6.63476C10.733 6.66308 10.8143 6.67266 10.8945 6.66268C10.9746 6.65271 11.0511 6.62347 11.1175 6.57748C11.1838 6.53148 11.2381 6.4701 11.2756 6.39857C11.313 6.32705 11.3326 6.24751 11.3327 6.16676V3.98876C11.3328 3.54759 11.1982 3.11689 10.947 2.75425C10.6957 2.39161 10.3398 2.11431 9.92668 1.95943L5.67468 0.365429ZM4.99935 11.0001C4.99935 11.4421 4.82376 11.866 4.5112 12.1786C4.19863 12.4912 3.77471 12.6668 3.33268 12.6668C2.89066 12.6668 2.46673 12.4912 2.15417 12.1786C1.84161 11.866 1.66602 11.4421 1.66602 11.0001C1.66602 10.5581 1.84161 10.1341 2.15417 9.82158C2.46673 9.50902 2.89066 9.33343 3.33268 9.33343C3.77471 9.33343 4.19863 9.50902 4.5112 9.82158C4.82376 10.1341 4.99935 10.5581 4.99935 11.0001ZM10.3327 5.44543L5.99935 3.8201V1.55476L9.57535 2.8961C9.79782 2.97945 9.98955 3.12874 10.1249 3.324C10.2602 3.51926 10.3327 3.75119 10.3327 3.98876V5.44543Z" fill="#222222"/>
</svg>
