<svg width="20" height="20" viewBox="0 0 20 20" fill="none" xmlns="http://www.w3.org/2000/svg">
<path d="M17.4212 10.0427C17.0675 10.0427 16.7313 10.1115 16.4237 10.2352C16.2188 8.00149 14.27 6.25024 11.8925 6.25024C11.3112 6.25024 10.7462 6.36024 10.2462 6.54649C10.0512 6.61899 10 6.69274 10 6.83774V14.7027C10 14.854 10.1225 14.9802 10.2762 14.9952L17.4225 14.999C18.8463 14.999 20 13.889 20 12.5202C20 11.1515 18.845 10.0415 17.4212 10.0415V10.0427ZM7.8125 15.0002H8.4375L8.75 10.6215L8.4375 6.25024H7.8125L7.5 10.6215L7.8125 15.0002ZM5.9375 15.0002H5.3125L5 11.8215L5.3125 8.75024H5.9375L6.25 11.8752L5.9375 15.0002ZM2.8125 15.0002H3.4375L3.75 12.5002L3.4375 10.0002H2.8125L2.5 12.5002L2.8125 15.0002ZM0.3125 13.7502H0.9375L1.25 12.5002L0.9375 11.2502H0.3125L0 12.5002L0.3125 13.7502Z" fill="white"/>
</svg>
