<svg width="18" height="18" viewBox="0 0 18 18" fill="none" xmlns="http://www.w3.org/2000/svg">
<path d="M8.99625 0.000610352C4.03575 0.000610352 0 4.03711 0 8.99761C0 13.9626 4.03575 18.0006 8.99625 18.0006C13.9613 18.0006 18 13.9619 18 8.99761C18 4.03711 13.9613 0.000610352 8.99625 0.000610352ZM4.431 12.3036C5.46107 11.9881 6.53219 11.8268 7.6095 11.8251C9.42 11.8251 11.2072 12.2841 12.7785 13.1526C12.8722 13.2036 12.957 13.3716 12.996 13.5816C13.0335 13.7916 13.0185 14.0069 12.957 14.1186C12.928 14.1718 12.8888 14.2186 12.8415 14.2565C12.7943 14.2944 12.74 14.3225 12.6818 14.3393C12.6237 14.356 12.5627 14.361 12.5026 14.3541C12.4425 14.3471 12.3843 14.3282 12.3315 14.2986C11.1774 13.6655 9.9079 13.2706 8.5983 13.1374C7.28871 13.0042 5.96569 13.1353 4.70775 13.5231C4.65 13.5418 4.58911 13.5488 4.52864 13.5437C4.46816 13.5386 4.40929 13.5215 4.35548 13.4935C4.30166 13.4654 4.25397 13.4269 4.21517 13.3802C4.17637 13.3336 4.14725 13.2796 4.1295 13.2216C4.04925 12.9591 4.215 12.3741 4.431 12.3036ZM4.03875 8.98861C5.20241 8.67247 6.40291 8.51232 7.60875 8.51236C9.77925 8.51236 11.934 9.03736 13.8412 10.0319C13.9755 10.0994 14.0738 10.2149 14.1188 10.3559C14.1415 10.4271 14.1498 10.5021 14.1431 10.5766C14.1364 10.651 14.1148 10.7234 14.0798 10.7894C13.9095 11.1224 13.71 11.3466 13.5848 11.3466C13.4934 11.3462 13.4034 11.3241 13.3223 11.2821C11.5592 10.3616 9.59841 9.88438 7.6095 9.89161C6.5032 9.88939 5.40169 10.037 4.335 10.3304C4.26384 10.3498 4.18955 10.3551 4.11636 10.3458C4.04317 10.3365 3.97252 10.313 3.90845 10.2764C3.84438 10.2398 3.78813 10.191 3.74293 10.1327C3.69773 10.0744 3.66445 10.0078 3.645 9.93661C3.561 9.62011 3.75375 9.06661 4.03875 8.98861ZM3.9375 6.82411C3.85308 6.84578 3.76521 6.85051 3.67895 6.83803C3.5927 6.82556 3.50977 6.79612 3.43495 6.75143C3.36013 6.70673 3.2949 6.64766 3.24303 6.57762C3.19117 6.50758 3.15368 6.42796 3.13275 6.34336C3.0405 5.96986 3.27375 5.53636 3.61275 5.45086C4.92038 5.12879 6.26204 4.96536 7.60875 4.96411C10.1962 4.96411 12.6757 5.54611 14.9767 6.69436C15.1348 6.77297 15.2553 6.91115 15.3115 7.07851C15.3678 7.24587 15.3553 7.42872 15.2767 7.58686C15.1695 7.80286 14.937 8.03536 14.6805 8.03536C14.5799 8.03499 14.4806 8.01272 14.3895 7.97011C12.2854 6.91459 9.96272 6.3684 7.60875 6.37561C6.3825 6.37561 5.14725 6.52636 3.9375 6.82411Z" fill="white"/>
</svg>
