<svg width="20" height="16" viewBox="0 0 20 16" fill="none" xmlns="http://www.w3.org/2000/svg">
<path d="M19.7024 2.11464C19.0066 2.42297 18.2591 2.6313 17.4733 2.72547C18.2841 2.2403 18.8907 1.47669 19.1799 0.577138C18.4181 1.02963 17.5844 1.34813 16.7149 1.5188C16.1302 0.894525 15.3558 0.480743 14.5119 0.341699C13.6679 0.202656 12.8017 0.346131 12.0476 0.749848C11.2936 1.15357 10.6939 1.79494 10.3417 2.57439C9.98954 3.35384 9.90454 4.22776 10.0999 5.06047C8.55633 4.98297 7.04628 4.58176 5.66778 3.88289C4.28928 3.18402 3.07313 2.20311 2.09826 1.0038C1.76493 1.5788 1.57326 2.24547 1.57326 2.95547C1.57289 3.59463 1.73029 4.22401 2.03149 4.78775C2.3327 5.35149 2.7684 5.83217 3.29993 6.18714C2.68349 6.16752 2.08066 6.00096 1.5416 5.7013V5.7513C1.54153 6.64776 1.85162 7.51662 2.41925 8.21047C2.98687 8.90432 3.77707 9.38041 4.65576 9.55797C4.08391 9.71273 3.48438 9.73553 2.90243 9.62464C3.15034 10.396 3.63326 11.0705 4.28357 11.5537C4.93388 12.037 5.71903 12.3048 6.5291 12.3196C5.15396 13.3991 3.45567 13.9847 1.70743 13.9821C1.39775 13.9822 1.08833 13.9641 0.780762 13.928C2.55533 15.069 4.62105 15.6745 6.73076 15.6721C13.8724 15.6721 17.7766 9.75714 17.7766 4.62714C17.7766 4.46047 17.7724 4.29214 17.7649 4.12547C18.5243 3.57628 19.1799 2.89622 19.7008 2.11714L19.7024 2.11464Z" fill="white"/>
</svg>
