<svg width="18" height="14" viewBox="0 0 18 14" fill="none" xmlns="http://www.w3.org/2000/svg">
<path d="M16.7141 6.13484C17.1091 6.6515 17.1091 7.349 16.7141 7.86484C15.4699 9.489 12.4849 12.8332 8.99993 12.8332C5.51493 12.8332 2.52993 9.489 1.28576 7.86484C1.09358 7.61745 0.989258 7.3131 0.989258 6.99984C0.989258 6.68657 1.09358 6.38223 1.28576 6.13484C2.52993 4.51067 5.51493 1.1665 8.99993 1.1665C12.4849 1.1665 15.4699 4.51067 16.7141 6.13484V6.13484Z" stroke="#A8ABBB" stroke-width="1.5" stroke-linecap="round" stroke-linejoin="round"/>
<path d="M9 9.5C10.3807 9.5 11.5 8.38071 11.5 7C11.5 5.61929 10.3807 4.5 9 4.5C7.61929 4.5 6.5 5.61929 6.5 7C6.5 8.38071 7.61929 9.5 9 9.5Z" stroke="#A8ABBB" stroke-width="1.5" stroke-linecap="round" stroke-linejoin="round"/>
</svg>
