<svg width="20" height="14" viewBox="0 0 20 14" fill="none" xmlns="http://www.w3.org/2000/svg">
<path d="M19.5834 2.42301C19.4701 2.01904 19.2495 1.6533 18.945 1.36468C18.6319 1.06718 18.2482 0.854374 17.83 0.746344C16.265 0.333844 9.99503 0.333844 9.99503 0.333844C7.38113 0.304105 4.76788 0.434906 2.17003 0.725511C1.75185 0.841522 1.36883 1.05908 1.05503 1.35884C0.746693 1.65551 0.523359 2.02134 0.406693 2.42218C0.126437 3.93196 -0.00973061 5.46496 2.60381e-05 7.00051C-0.00997396 8.53468 0.125859 10.0672 0.406693 11.5788C0.520859 11.978 0.743359 12.3422 1.05253 12.6363C1.36169 12.9305 1.74669 13.143 2.17003 13.2555C3.75586 13.6672 9.99503 13.6672 9.99503 13.6672C12.6122 13.697 15.2288 13.5662 17.83 13.2755C18.2482 13.1675 18.6319 12.9547 18.945 12.6572C19.2534 12.363 19.4725 11.9972 19.5825 11.5988C19.8701 10.0896 20.0099 8.556 20 7.01968C20.0217 5.47685 19.882 3.93598 19.5834 2.42218V2.42301ZM8.00169 9.85384V4.14801L13.2184 7.00134L8.00169 9.85384Z" fill="white"/>
</svg>
