<svg width="16" height="16" viewBox="0 0 16 16" fill="none" xmlns="http://www.w3.org/2000/svg">
<path d="M14.5195 7.14636L5.52148 1.64733C5.36992 1.55465 5.1964 1.50403 5.01878 1.50067C4.84116 1.49731 4.66585 1.54133 4.51089 1.62821C4.35593 1.71509 4.22692 1.84168 4.13712 1.99497C4.04733 2.14826 4 2.32271 4 2.50036V13.4994C4.00014 13.677 4.04757 13.8513 4.13739 14.0045C4.22722 14.1577 4.35622 14.2843 4.51113 14.3711C4.66604 14.458 4.84128 14.502 5.01884 14.4987C5.19641 14.4954 5.3699 14.4449 5.52148 14.3524L14.5195 8.85339C14.6657 8.76401 14.7865 8.63858 14.8703 8.48913C14.954 8.33968 14.998 8.17121 14.998 7.99988C14.998 7.82854 14.954 7.66008 14.8703 7.51062C14.7865 7.36117 14.6657 7.23575 14.5195 7.14636Z" fill="#3D67FF"/>
</svg>
