<svg width="21" height="20" viewBox="0 0 21 20" fill="none" xmlns="http://www.w3.org/2000/svg">
<path d="M10.8429 16.6664C11.3031 16.6664 11.6762 16.2933 11.6762 15.8331C11.6762 15.3729 11.3031 14.9998 10.8429 14.9998C10.3826 14.9998 10.0095 15.3729 10.0095 15.8331C10.0095 16.2933 10.3826 16.6664 10.8429 16.6664Z" stroke="#A8ABBB" stroke-width="2" stroke-linecap="round" stroke-linejoin="round"/>
<path d="M10.8429 10.8337C11.3031 10.8337 11.6762 10.4606 11.6762 10.0003C11.6762 9.54009 11.3031 9.16699 10.8429 9.16699C10.3826 9.16699 10.0095 9.54009 10.0095 10.0003C10.0095 10.4606 10.3826 10.8337 10.8429 10.8337Z" stroke="#A8ABBB" stroke-width="2" stroke-linecap="round" stroke-linejoin="round"/>
<path d="M10.8429 5.00016C11.3031 5.00016 11.6762 4.62707 11.6762 4.16683C11.6762 3.70659 11.3031 3.3335 10.8429 3.3335C10.3826 3.3335 10.0095 3.70659 10.0095 4.16683C10.0095 4.62707 10.3826 5.00016 10.8429 5.00016Z" stroke="#A8ABBB" stroke-width="2" stroke-linecap="round" stroke-linejoin="round"/>
</svg>
