<svg width="13" height="16" viewBox="0 0 13 16" fill="none" xmlns="http://www.w3.org/2000/svg">
<path d="M12.3345 7.03959L2.21167 0.853191C2.04116 0.748925 1.84595 0.691972 1.64613 0.68819C1.44631 0.684408 1.24908 0.733934 1.07475 0.831673C0.900423 0.929412 0.755282 1.07183 0.654263 1.24428C0.553245 1.41674 0.499998 1.61299 0.5 1.81285V14.1867C0.500163 14.3865 0.553513 14.5827 0.654569 14.755C0.755626 14.9274 0.900746 15.0697 1.07502 15.1674C1.24929 15.2652 1.44644 15.3147 1.6462 15.311C1.84596 15.3073 2.04113 15.2505 2.21167 15.1464L12.3345 8.96C12.4989 8.85944 12.6348 8.71834 12.729 8.5502C12.8233 8.38207 12.8728 8.19255 12.8728 7.9998C12.8728 7.80704 12.8233 7.61752 12.729 7.44939C12.6348 7.28126 12.4989 7.14015 12.3345 7.03959Z" fill="#616162"/>
</svg>
