<svg width="13" height="15" viewBox="0 0 13 15" fill="none" xmlns="http://www.w3.org/2000/svg">
<path d="M11.8345 6.3516L1.71167 0.165202C1.54116 0.0609369 1.34595 0.00398328 1.14613 0.000201448C0.946307 -0.00358039 0.749084 0.0459461 0.574753 0.143685C0.400423 0.241424 0.255282 0.383846 0.154263 0.556296C0.0532451 0.728747 -2.15289e-06 0.924998 0 1.12486V13.4988C0.000162618 13.6986 0.0535126 13.8947 0.154569 14.0671C0.255626 14.2394 0.400746 14.3818 0.575019 14.4795C0.749293 14.5772 0.946436 14.6267 1.1462 14.623C1.34596 14.6193 1.54113 14.5625 1.71167 14.4584L11.8345 8.27201C11.9989 8.17145 12.1348 8.03035 12.229 7.86222C12.3233 7.69408 12.3728 7.50456 12.3728 7.31181C12.3728 7.11906 12.3233 6.92953 12.229 6.7614C12.1348 6.59327 11.9989 6.45216 11.8345 6.3516Z" fill="white"/>
</svg>
