<svg width="54" height="45" viewBox="0 0 54 45" fill="none" xmlns="http://www.w3.org/2000/svg">
<path d="M20.6 0.199996C22.4667 6.46666 23.4 13.1333 23.4 20.2C23.4 28.2 21.4667 34.3333 17.6 38.6C13.8667 42.8667 8.33333 45 1 45V35.4C4.33333 35.4 6.8 34.4667 8.4 32.6C10 30.6 10.8 27.6667 10.8 23.8V19.6H5.66244e-07V0.199996H20.6ZM50.8 0.199996C52.8 7.53333 53.8 14.2 53.8 20.2C53.8 28.2 51.8667 34.3333 48 38.6C44.1333 42.8667 38.5333 45 31.2 45V35.4C34.6667 35.4 37.1333 34.4667 38.6 32.6C40.2 30.7333 41 27.8 41 23.8V19.6H30.2V0.199996H50.8Z" fill="#3D67FF"/>
</svg>
