<svg width="18" height="18" viewBox="0 0 18 18" fill="none" xmlns="http://www.w3.org/2000/svg">
<path d="M9.00001 3.35986C8.43337 3.35986 7.87945 3.52789 7.4083 3.8427C6.93716 4.15751 6.56994 4.60497 6.3531 5.12848C6.13625 5.65199 6.07951 6.22804 6.19006 6.7838C6.30061 7.33955 6.57347 7.85005 6.97415 8.25072C7.37483 8.6514 7.88532 8.92427 8.44108 9.03481C8.99683 9.14536 9.57289 9.08862 10.0964 8.87178C10.6199 8.65493 11.0674 8.28772 11.3822 7.81657C11.697 7.34543 11.865 6.79151 11.865 6.22486C11.865 5.46502 11.5632 4.73629 11.0259 4.199C10.4886 3.66171 9.75986 3.35986 9.00001 3.35986ZM9.00001 8.08986C8.63115 8.08986 8.27057 7.98048 7.96387 7.77555C7.65718 7.57063 7.41813 7.27935 7.27698 6.93857C7.13582 6.59778 7.09889 6.22279 7.17085 5.86102C7.24281 5.49925 7.42043 5.16693 7.68126 4.90611C7.94208 4.64528 8.27439 4.46766 8.63617 4.3957C8.99794 4.32374 9.37293 4.36067 9.71372 4.50183C10.0545 4.64299 10.3458 4.88203 10.5507 5.18872C10.7556 5.49542 10.865 5.856 10.865 6.22486C10.8637 6.71863 10.6666 7.19171 10.317 7.54039C9.96739 7.88906 9.49378 8.08487 9.00001 8.08486V8.08986Z" fill="#222222"/>
<path d="M8.99986 1C7.44246 1.0013 5.94886 1.61884 4.84527 2.71775C3.74168 3.81665 3.11779 5.30762 3.10986 6.865C3.10986 9.2 4.41986 11.155 5.37986 12.58L5.55486 12.84C6.51 14.2243 7.53465 15.5594 8.62486 16.84L9.00486 17.285L9.38486 16.84C10.4749 15.5592 11.4996 14.2242 12.4549 12.84L12.6299 12.575C13.5849 11.15 14.8949 9.2 14.8949 6.865C14.8869 5.30675 14.2624 3.81503 13.1577 2.71599C12.053 1.61694 10.5581 0.99998 8.99986 1ZM11.7949 12L11.6149 12.265C10.7549 13.555 9.61486 15 8.99986 15.715C8.40986 15 7.24486 13.555 6.38486 12.265L6.20986 12C5.32486 10.68 4.10986 8.875 4.10986 6.845C4.10986 6.20284 4.23635 5.56696 4.48209 4.97368C4.72784 4.3804 5.08803 3.84133 5.54211 3.38725C5.99619 2.93317 6.53526 2.57297 7.12854 2.32723C7.72182 2.08148 8.3577 1.955 8.99986 1.955C9.64203 1.955 10.2779 2.08148 10.8712 2.32723C11.4645 2.57297 12.0035 2.93317 12.4576 3.38725C12.9117 3.84133 13.2719 4.3804 13.5176 4.97368C13.7634 5.56696 13.8899 6.20284 13.8899 6.845C13.8899 8.895 12.6799 10.7 11.7949 12Z" fill="#222222"/>
</svg>
